<svg xmlns="http://www.w3.org/2000/svg" shape-rendering="geometricPrecision" text-rendering="geometricPrecision" image-rendering="optimizeQuality" fill-rule="evenodd" clip-rule="evenodd" viewBox="0 0 512 414.89"><path fill-rule="nonzero" d="M189.688 279.224V256.79H119.88v-30.267l57.765-90.857h49.345v90.857h16.546v30.267H226.99v22.434h-37.302zM80.058 0h351.889c21.902 0 41.854 9.115 56.353 23.619C502.917 38.236 512 58.373 512 80.226v254.438c0 21.804-9.175 41.898-23.766 56.477-14.574 14.58-34.591 23.749-56.287 23.749H80.058c-21.744 0-41.827-9.076-56.423-23.683C9.121 376.698 0 356.686 0 334.664V80.226c0-22.065 9.028-42.131 23.57-56.672C38.101 9.022 58.101 0 80.058 0zm351.889 33.331H80.058c-13.004 0-24.792 5.286-33.293 13.787-8.496 8.495-13.771 20.218-13.771 33.108v254.438c0 12.809 5.34 24.488 13.836 32.978 8.577 8.583 20.403 13.917 33.228 13.917h351.889c12.744 0 24.515-5.399 33.092-13.982 8.572-8.566 13.967-20.283 13.967-32.913V80.226c0-12.711-5.33-24.471-13.901-33.043-8.501-8.501-20.24-13.852-33.158-13.852zM261.456 279.224V135.666h38.981v58.058h1.972l43.163-58.058H391l-48.519 63.946 49.639 79.612h-46.548l-32.239-53.82-12.896 16.812v37.008h-38.981zm-70.915-52.701v-50.464h-1.119l-31.12 49.345v1.119h32.239z"/></svg>