<svg xmlns="http://www.w3.org/2000/svg" shape-rendering="geometricPrecision" text-rendering="geometricPrecision" image-rendering="optimizeQuality" fill-rule="evenodd" clip-rule="evenodd" viewBox="0 0 512 414.883"><path fill-rule="nonzero" d="M80.056 0h351.888c21.902 0 41.859 9.115 56.362 23.618C502.912 38.225 512 58.372 512 80.225v254.433c0 21.82-9.169 41.897-23.759 56.481-14.574 14.58-34.591 23.744-56.297 23.744H80.056c-21.755 0-41.831-9.072-56.427-23.678C9.115 376.696 0 356.684 0 334.658V80.225c0-22.07 9.028-42.141 23.569-56.672C38.1 9.022 58.1 0 80.056 0zm37.573 279.219V135.664h38.98v56.084h51.582v-56.084h38.979v143.555h-38.979v-56.085h-51.582v56.085h-38.98zm205.225 0h-55.232V135.664h54.672c14.77 0 27.535 2.857 38.323 8.582 10.755 5.725 19.082 13.949 24.933 24.672 5.855 10.723 8.821 23.586 8.821 38.523 0 14.965-2.928 27.796-8.783 38.518-5.824 10.728-14.112 18.952-24.808 24.672-10.69 5.726-23.352 8.588-37.926 8.588zm-16.253-33.091h14.868c7.11 0 13.161-1.119 18.191-3.422 5.003-2.303 8.849-6.253 11.484-11.842 2.629-5.627 3.948-13.422 3.948-23.423 0-10-1.319-17.795-4.014-23.39-2.699-5.627-6.61-9.571-11.776-11.874-5.166-2.271-11.483-3.422-18.947-3.422h-13.754v77.373zM431.944 33.331H80.056c-13.004 0-24.791 5.285-33.292 13.786-8.491 8.49-13.77 20.218-13.77 33.108v254.433c0 12.814 5.334 24.493 13.829 32.983 8.577 8.582 20.397 13.911 33.233 13.911h351.888c12.754 0 24.525-5.394 33.103-13.977 8.571-8.565 13.96-20.277 13.96-32.917V80.225c0-12.717-5.329-24.477-13.895-33.043-8.507-8.506-20.246-13.851-33.168-13.851z"/></svg>